<?xml version="1.0" encoding="UTF-8"?><svg id="Laag_2" xmlns="http://www.w3.org/2000/svg" viewBox="0 0 512.49 381.02"><defs><style>.cls-1{fill:#232323;}.cls-2{fill:#058c42;}</style></defs><g id="Laag_2-2"><g><path class="cls-1" d="M28.17,319.28h2.51l28.36,59.81h-15.24l-2.89-5.98H18.04l-2.8,5.98H0l28.17-59.81Zm-15.53,57.11l16.21-34.92h1.35l16.01,34.92h7.81l-24.6-51.9-24.41,51.9h7.62Zm-1.25-11.48h5.31l-.29,.48h-5.31l.29-.48Zm.87-1.93h5.31l-.29,.48h-5.21l.19-.48Zm.96-1.93h5.21l-.29,.48h-5.21l.29-.48Zm.87-1.93h5.21l-.29,.48h-5.11l.19-.48Zm.96-1.93h5.21l-.29,.48h-5.21l.29-.48Zm.87-1.93h5.21l-.29,.48h-5.11l.19-.48Zm.87-1.93h5.21l-.29,.48h-5.11l.19-.48Zm.96-1.93h5.21l-.29,.48h-5.21l.29-.48Zm.87-1.93h5.21l-.29,.48h-5.11l.19-.48Zm21.13,21.03l-2.22-4.82H21.22l-2.12,4.82h20.64Zm-20.16-22.96h5.21l-.29,.48h-5.21l.29-.48Zm.87-1.93h5.21l-.29,.48h-5.11l.19-.48Zm.96-1.93h5.21l-.29,.48h-5.21l.29-.48Zm0,25.08h15.63l.19,.48H21.22l.19-.48Zm.87-27.01h5.21l-.29,.48h-5.11l.19-.48Zm0,25.08h13.99l.29,.48h-14.47l.19-.48Zm13.7-3.96l-6.56-14.57h-.19l-6.66,14.57h13.41Zm-12.73-23.06h12.25l.29,.48h-12.83l.29-.48Zm.87-1.93h10.51l.19,.48h-10.9l.19-.48Zm.87-1.93h8.68l.29,.48h-9.17l.19-.48Zm.96-1.93h6.85l.19,.48h-7.33l.29-.48Zm.87-1.93h5.02l.29,.48h-5.5l.19-.48Zm.96-1.93h3.18l.19,.48h-3.67l.29-.48Zm.87-1.93h1.35l.29,.48h-1.83l.19-.48Zm.77-1.64l.19,.39h-.39l.19-.39Zm2.03,15.15h5.02l.19,.48h-4.92l-.29-.48Zm.87,1.93h5.02l.29,.48h-5.02l-.29-.48Zm.87,1.93h5.11l.19,.48h-5.02l-.29-.48Zm.87,1.93h5.11l.29,.48h-5.11l-.29-.48Zm.87,1.93h5.21l.19,.48h-5.11l-.29-.48Zm.87,1.93h5.21l.29,.48h-5.21l-.29-.48Zm.87,1.93h5.31l.19,.48h-5.21l-.29-.48Zm.87,1.93h5.31l.29,.48h-5.31l-.29-.48Zm6.27,1.93l.19,.48h-5.31l-.29-.48h5.4Zm.87,1.93l.29,.48h-5.5l-.29-.48h5.5Zm.96,1.93l.19,.48h-5.5l-.29-.48h5.59Zm.87,1.93l.29,.48h-5.59l-.29-.48h5.59Zm.96,1.93l.19,.48h-5.69l-.29-.48h5.79Z"/><path class="cls-1" d="M73.41,321.21h24.21c12.44,0,20.55,7.52,20.55,18.42,0,10.13-5.11,15.82-13.7,17.94l15.63,21.51h-17.75l-14.76-21.61v21.61h-14.18v-57.88Zm10.61,55.18v-20.74h6.37l14.18,20.74h9.55l-14.47-19.97v-.87c9.84-1.16,14.95-6.08,14.95-15.34,0-9.94-7.33-16.3-16.98-16.3h-20.64v52.48h7.04Zm0-45.82h14.57c5.88,0,9.26,4.63,9.26,9.07,0,5.11-3.57,9.36-8.87,9.36h-14.95v-18.42Zm.1-5.59h13.51l4.53,.48h-18.04v-.48Zm0,1.93h21.71l.77,.48h-22.48v-.48Zm0,1.93h24.6l.48,.48h-25.08v-.48Zm0,21.22h26.05l-.48,.48h-25.56v-.48Zm0,1.93h23.54l-.87,.48h-22.67v-.48Zm0,1.93h18.81l-2.51,.48h-16.3v-.48Zm14.86-7.62c3.18,0,5.31-3.28,5.31-6.66s-2.51-6.37-5.69-6.37h-11v13.02h11.38Zm-7.33,9.55h6.85v.48h-6.56l-.29-.48Zm1.25,1.93h6.37l.48,.48h-6.56l-.29-.48Zm1.35,1.93h6.46l.39,.48h-6.56l-.29-.48Zm1.25,1.93h6.56l.48,.48h-6.75l-.29-.48Zm8.01,1.93l.39,.48h-6.75l-.29-.48h6.66Zm1.35,1.93l.48,.48h-6.95l-.29-.48h6.75Zm1.45,1.93l.39,.48h-6.95l-.29-.48h6.85Zm1.35,1.93l.48,.48h-7.04l-.29-.48h6.85Zm1.45,1.93l.39,.48h-7.04l-.29-.48h6.95Zm1.45-40.52l.39,.48h-6.75l-1.06-.48h7.43Zm-.1,42.44l.48,.48h-7.14l-.29-.48h6.95Zm-5.79-25.08h7.04l-.39,.48h-7.43l.77-.48Zm7.23,27.01l.29,.48h-7.04l-.29-.48h7.04Zm-.1-42.45l.19,.48h-5.4l-.67-.48h5.88Zm-5.11,13.51h5.98l-.29,.48h-6.17l.48-.48Zm.67-11.58h5.31l.19,.48h-5.21l-.29-.48Zm.48,9.65h5.4l-.19,.48h-5.5l.29-.48Zm.48-7.72h4.92v.48h-4.63l-.29-.48Zm.1,5.79h5.02v.48h-5.11l.1-.48Zm.29-3.86h4.82v.48h-4.82v-.48Zm.1,1.93h4.82v.48h-4.82v-.48Z"/><path class="cls-1" d="M142.66,333.75h-13.02v-12.54h40.32v12.54h-13.12v45.34h-14.18v-45.34Zm10.61,42.64v-45.34h13.12v-7.14h-33.18v7.14h13.02v45.34h7.04Zm-19.1-51.03h31.25v.48h-31.25v-.48Zm0,1.93h31.25v.48h-31.25v-.48Zm0,1.93h31.25v.48h-31.25v-.48Z"/><path class="cls-1" d="M184.72,321.21h14.18v57.88h-14.18v-57.88Zm10.61,55.18v-52.48h-7.04v52.48h7.04Zm-6.08-51.61h5.11v.48h-5.11v-.48Zm0,1.93h5.11v.48h-5.11v-.48Zm0,1.93h5.11v.48h-5.11v-.48Zm0,1.93h5.11v.48h-5.11v-.48Zm0,1.93h5.11v.48h-5.11v-.48Zm0,1.93h5.11v.48h-5.11v-.48Zm0,1.93h5.11v.48h-5.11v-.48Zm0,1.93h5.11v.48h-5.11v-.48Zm0,1.93h5.11v.48h-5.11v-.48Zm0,1.93h5.11v.48h-5.11v-.48Zm0,1.93h5.11v.48h-5.11v-.48Zm0,1.93h5.11v.48h-5.11v-.48Zm0,1.93h5.11v.48h-5.11v-.48Zm0,1.93h5.11v.48h-5.11v-.48Zm0,1.93h5.11v.48h-5.11v-.48Z"/><path class="cls-1" d="M216.36,321.21h37.33v12.54h-23.15v12.35h21.32v12.35h-21.32v20.64h-14.18v-57.88Zm10.61,55.18v-20.64h21.32v-6.95h-21.32v-17.75h23.15v-7.14h-30.19v52.48h7.04Zm-5.69-51.13h27.88v.48h-27.4l-.48-.48Zm1.93,1.93h25.95v.48h-25.47l-.48-.48Zm1.93,1.93h24.02v.48h-23.54l-.48-.48Zm1.83,20.93h20.35v.48h-20.35v-.48Zm0,1.93h20.35v.48h-20.35v-.48Zm0,1.93h20.35v.48h-20.35v-.48Z"/><path class="cls-1" d="M267.77,321.21h14.18v57.88h-14.18v-57.88Zm10.61,55.18v-52.48h-7.04v52.48h7.04Zm-6.08-51.61h5.11v.48h-5.11v-.48Zm0,1.93h5.11v.48h-5.11v-.48Zm0,1.93h5.11v.48h-5.11v-.48Zm0,1.93h5.11v.48h-5.11v-.48Zm0,1.93h5.11v.48h-5.11v-.48Zm0,1.93h5.11v.48h-5.11v-.48Zm0,1.93h5.11v.48h-5.11v-.48Zm0,1.93h5.11v.48h-5.11v-.48Zm0,1.93h5.11v.48h-5.11v-.48Zm0,1.93h5.11v.48h-5.11v-.48Zm0,1.93h5.11v.48h-5.11v-.48Zm0,1.93h5.11v.48h-5.11v-.48Zm0,1.93h5.11v.48h-5.11v-.48Zm0,1.93h5.11v.48h-5.11v-.48Zm0,1.93h5.11v.48h-5.11v-.48Z"/><path class="cls-1" d="M331.34,319.28c11,0,18.62,4.15,24.79,10.61l-9.74,9.26c-4.05-3.96-9.26-6.46-15.05-6.46-10.32,0-16.98,7.72-16.98,17.46s6.66,17.46,16.98,17.46c5.79,0,11-2.51,15.05-6.46l9.45,9.26c-5.79,6.08-13.79,10.61-24.5,10.61-18.33,0-31.35-13.6-31.35-30.87s13.02-30.87,31.35-30.87Zm0,59.04c8.49,0,14.86-2.7,20.26-7.72l-5.5-5.59c-3.47,3.09-8.97,5.31-14.76,5.31-12.44,0-20.64-8.88-20.64-20.16s8.2-20.16,20.64-20.16c5.5,0,10.8,2.03,14.95,5.21l5.5-5.31c-5.11-5.21-11.77-7.91-20.45-7.91-16.11,0-27.78,12.44-27.78,28.17s11.67,28.17,27.78,28.17Zm-26.72-30.29h5.21l-.1,.48h-5.21l.1-.48Zm-.1,1.93h5.21v.48h-5.21v-.48Zm0,1.93h5.21l.1,.48h-5.21l-.1-.48Zm.29-5.79h5.31l-.19,.48h-5.21l.1-.48Zm-.1,7.72h5.21l.19,.48h-5.31l-.1-.48Zm.39-9.65h5.4l-.19,.48h-5.31l.1-.48Zm-.1,11.58h5.31l.19,.48h-5.31l-.19-.48Zm.58-13.5h5.5l-.19,.48h-5.4l.1-.48Zm-.1,15.43h5.4l.19,.48h-5.5l-.1-.48Zm.67-17.36h5.79l-.29,.48h-5.6l.1-.48Zm-.1,19.29h5.6l.29,.48h-5.79l-.1-.48Zm.87-21.22h6.08l-.39,.48h-5.88l.19-.48Zm-.19,23.15h5.98l.39,.48h-6.08l-.29-.48Zm1.16-25.08h6.56l-.39,.48h-6.46l.29-.48Zm-.19,27.01h6.37l.48,.48h-6.56l-.29-.48Zm1.45-28.94h7.14l-.58,.48h-6.95l.39-.48Zm-.29,30.87h6.95l.48,.48h-7.14l-.29-.48Zm1.64-32.8h8.1l-.67,.48h-7.81l.39-.48Zm-.19,34.73h7.72l.58,.48h-8.01l-.29-.48Zm2.03-36.66h10.13l-1.25,.48h-9.36l.48-.48Zm9.07,38.59l.96,.48h-9.94l-.48-.48h9.45Zm-6.85-40.52h16.79v.19l-3.76,.29h-13.79l.77-.48Zm13.6,42.45c.96,0,2.32,.1,3.18,.19v.29h-16.59l-.58-.48h13.99Zm-10.8-44.37h13.99v.48h-14.76l.77-.48Zm13.99,46.3v.48h-13.79l-.67-.48h14.47Zm-10.03-48.23h10.03v.48h-11.29l1.25-.48Zm10.03,50.16v.48h-9.84l-1.25-.48h11.09Zm0-52v.39h-4.92c1.64-.29,2.12-.39,4.92-.39Zm0,53.92v.29h-.19l-4.34-.29h4.53Z"/><path class="cls-1" d="M371.17,321.21h14.18v57.88h-14.18v-57.88Zm10.61,55.18v-52.48h-7.04v52.48h7.04Zm-6.08-51.61h5.11v.48h-5.11v-.48Zm0,1.93h5.11v.48h-5.11v-.48Zm0,1.93h5.11v.48h-5.11v-.48Zm0,1.93h5.11v.48h-5.11v-.48Zm0,1.93h5.11v.48h-5.11v-.48Zm0,1.93h5.11v.48h-5.11v-.48Zm0,1.93h5.11v.48h-5.11v-.48Zm0,1.93h5.11v.48h-5.11v-.48Zm0,1.93h5.11v.48h-5.11v-.48Zm0,1.93h5.11v.48h-5.11v-.48Zm0,1.93h5.11v.48h-5.11v-.48Zm0,1.93h5.11v.48h-5.11v-.48Zm0,1.93h5.11v.48h-5.11v-.48Zm0,1.93h5.11v.48h-5.11v-.48Zm0,1.93h5.11v.48h-5.11v-.48Z"/><path class="cls-1" d="M427.89,319.28h2.51l28.36,59.81h-15.24l-2.89-5.98h-22.86l-2.8,5.98h-15.24l28.17-59.81Zm-15.53,57.11l16.21-34.92h1.35l16.01,34.92h7.81l-24.6-51.9-24.41,51.9h7.62Zm-1.25-11.48h5.31l-.29,.48h-5.31l.29-.48Zm.87-1.93h5.31l-.29,.48h-5.21l.19-.48Zm.96-1.93h5.21l-.29,.48h-5.21l.29-.48Zm.87-1.93h5.21l-.29,.48h-5.11l.19-.48Zm.96-1.93h5.21l-.29,.48h-5.21l.29-.48Zm.87-1.93h5.21l-.29,.48h-5.11l.19-.48Zm.87-1.93h5.21l-.29,.48h-5.11l.19-.48Zm.96-1.93h5.21l-.29,.48h-5.21l.29-.48Zm.87-1.93h5.21l-.29,.48h-5.11l.19-.48Zm21.13,21.03l-2.22-4.82h-16.3l-2.12,4.82h20.64Zm-20.16-22.96h5.21l-.29,.48h-5.21l.29-.48Zm.87-1.93h5.21l-.29,.48h-5.11l.19-.48Zm.96-1.93h5.21l-.29,.48h-5.21l.29-.48Zm0,25.08h15.63l.19,.48h-16.01l.19-.48Zm.87-27.01h5.21l-.29,.48h-5.11l.19-.48Zm0,25.08h13.99l.29,.48h-14.47l.19-.48Zm13.7-3.96l-6.56-14.57h-.19l-6.66,14.57h13.41Zm-12.73-23.06h12.25l.29,.48h-12.83l.29-.48Zm.87-1.93h10.51l.19,.48h-10.9l.19-.48Zm.87-1.93h8.68l.29,.48h-9.16l.19-.48Zm.96-1.93h6.85l.19,.48h-7.33l.29-.48Zm.87-1.93h5.02l.29,.48h-5.5l.19-.48Zm.96-1.93h3.18l.19,.48h-3.67l.29-.48Zm.87-1.93h1.35l.29,.48h-1.83l.19-.48Zm.77-1.64l.19,.39h-.39l.19-.39Zm2.03,15.15h5.02l.19,.48h-4.92l-.29-.48Zm.87,1.93h5.02l.29,.48h-5.02l-.29-.48Zm.87,1.93h5.11l.19,.48h-5.02l-.29-.48Zm.87,1.93h5.11l.29,.48h-5.11l-.29-.48Zm.87,1.93h5.21l.19,.48h-5.11l-.29-.48Zm.87,1.93h5.21l.29,.48h-5.21l-.29-.48Zm.87,1.93h5.31l.19,.48h-5.21l-.29-.48Zm.87,1.93h5.31l.29,.48h-5.31l-.29-.48Zm6.27,1.93l.19,.48h-5.31l-.29-.48h5.4Zm.87,1.93l.29,.48h-5.5l-.29-.48h5.5Zm.96,1.93l.19,.48h-5.5l-.29-.48h5.59Zm.87,1.93l.29,.48h-5.59l-.29-.48h5.59Zm.96,1.93l.19,.48h-5.69l-.29-.48h5.79Z"/><path class="cls-1" d="M473.13,321.21h14.18v45.73h25.18v12.15h-39.36v-57.88Zm35.79,55.18v-6.75h-25.18v-45.72h-7.04v52.48h32.22Zm-30.48-1.64h29.52v.48h-30l.48-.48Zm2.03-1.93h27.49v.48h-27.98l.48-.48Zm2.03-1.93h25.47v.48h-26.05l.58-.48Z"/></g><g><path class="cls-2" d="M400.63,144.14c.43-20.49-4.26-41.23-13.1-59.38-14.43-29.64-37.65-54.81-67.31-69.64-.9-.45-1.81-.89-2.73-1.33C299.15,5.11,279.02,.42,258.73,.03c-.95-.02-1.89-.03-2.84-.03-7.03,0-14.07,.51-21.03,1.52-19.7,2.88-38.72,9.9-55.58,20.49-16.51,10.38-30.87,24.11-41.98,40.14-11.29,16.29-19.15,34.89-22.93,54.35-4.56,23.44-2.87,47.92,3.91,70.77,7.31,24.63,20.79,47.26,38.9,65.47,17.62,17.72,41.07,33.48,67.22,27.92,6.4-1.36,12.29-4.06,17.38-8.2,18.33-14.94,17.21-42.26,16.3-63.54-.32-7.53-.69-15.07-.38-22.61,.11-2.79,.39-5.78,2.15-7.95,1.47-1.81,3.75-2.75,5.94-3.55,15.6-5.7,32.88-8.63,45.56-19.36,12.87-10.9,18.7-28.2,20.05-45.01,1.24-15.4-1.25-32.04-11.49-43.61-5.69,13.34-19.39,20.99-30.66,30.11-21.36,17.3-35.9,43.16-38.24,70.55-9.31-12.69-11.3-29.88-21.63-41.75-13.75-15.8-38.41-17.94-52.85-33.11-6.03,16.63-6.62,36.29,3.08,51.09,10.23,15.59,29.33,22.6,47.47,26.92,6.38,1.52,13.49,3.29,16.98,8.84,1.87,2.97,2.36,6.59,2.69,10.08,1.03,10.89,.84,21.87,.02,32.76-.79,10.53-1.05,21.75-5.89,31.38-5.15,10.24-16.08,15.74-27.27,16.38-5.89,.34-11.83-.83-17.27-3.07-11.61-4.78-21.57-12.78-30.38-21.59-8.7-8.71-16.55-18.22-22.99-28.73-8.37-13.65-14.45-28.72-17.75-44.39-1.88-8.91-2.86-18-2.86-27.11,0-73.14,59.29-132.42,132.43-132.42,20.22,0,40.34,4.64,58.48,13.58,17.6,8.68,33.19,21.29,45.37,36.67,20.1,25.36,33.25,59.65,29.75,92.31-1.91,17.81-9.38,35.32-22.42,47.58-1.81,1.7-8.45,8.14-8.73,10.61-.45,4.11,8.68,2.3,10.32,6.1-.09-.21,10.97-11.37,11.97-12.66,3.71-4.78,6.93-9.93,9.67-15.33,7.46-14.69,11.11-31.02,11.45-47.51Z"/><path class="cls-2" d="M326.97,188.33h26.04c9.41,0,17.04,7.64,17.04,17.04v44.35c0,9.41-7.64,17.04-17.04,17.04h-26.04v-78.43h0Z" transform="translate(-67.61 236.45) rotate(-34.37)"/><rect class="cls-2" x="300.85" y="223.71" width="35.65" height="7.57" rx="1.5" ry="1.5" transform="translate(-72.27 249.06) rotate(-38.68)"/><rect class="cls-2" x="319.72" y="253.06" width="35.65" height="7.57" rx="1.5" ry="1.5" transform="translate(-86.48 267.29) rotate(-38.68)"/></g></g></svg>