<?xml version="1.0" encoding="UTF-8"?><svg id="Laag_2" xmlns="http://www.w3.org/2000/svg" viewBox="0 0 512.49 381.02"><defs><style>.cls-1{fill:#fff;}.cls-2{fill:#058c42;}</style></defs><g id="Laag_2-2"><g><path class="cls-1" d="M28.17,319.28h2.51l28.36,59.81h-15.24l-2.89-5.98H18.04l-2.8,5.98H0l28.17-59.81Zm-15.43,57.11l6.27-13.41h-7.81l-6.37,13.41h7.91Zm23.34-13.41l-6.66-14.66h-.19l-6.75,14.66h13.6Zm10.03,13.41h8.01l-6.37-13.41h-7.81l6.17,13.41Z"/><path class="cls-1" d="M73.41,321.21h24.21c12.44,0,20.55,7.52,20.55,18.42,0,10.13-5.11,15.82-13.7,17.94l15.63,21.51h-17.75l-14.76-21.61v21.61h-14.18v-57.88Zm10.61,55.18v-52.48h-7.04v52.48h7.04Zm14.95-30.1c3.18,0,5.31-3.28,5.31-6.66s-2.51-6.37-5.69-6.37h-11v13.02h11.38Z"/><path class="cls-1" d="M142.57,333.75h-12.93v-12.54h40.32v12.54h-13.12v45.34h-14.28v-45.34Zm10.8,42.64v-42.64h-7.43v42.64h7.43Z"/><path class="cls-1" d="M184.72,321.21h14.18v57.88h-14.18v-57.88Zm10.61,55.18v-20.64h-7.04v20.64h7.04Z"/><path class="cls-1" d="M216.36,321.21h37.33v12.54h-23.15v12.35h21.32v12.35h-21.32v20.64h-14.18v-57.88Zm10.61,55.18v-45.34l-7.04-7.14v52.48h7.04Z"/><path class="cls-1" d="M267.77,321.21h14.18v57.88h-14.18v-57.88Zm10.61,55.18v-20.64h-7.04v20.64h7.04Z"/><path class="cls-1" d="M331.34,319.28c11,0,18.62,4.15,24.79,10.61l-9.74,9.26c-4.05-3.96-9.26-6.46-15.05-6.46-10.32,0-16.98,7.72-16.98,17.46s6.66,17.46,16.98,17.46c5.79,0,11-2.51,15.05-6.46l9.45,9.26c-5.79,6.08-13.79,10.61-24.5,10.61-18.33,0-31.35-13.6-31.35-30.87s13.02-30.87,31.35-30.87Zm14.95,15.92l5.5-5.31c-5.11-5.21-11.77-7.91-20.45-7.91v8.01c5.5,0,10.8,2.03,14.95,5.21Zm5.31,35.4l-5.5-5.59c-3.47,3.09-8.97,5.31-14.76,5.31v8.01c8.49,0,14.86-2.7,20.26-7.72Z"/><path class="cls-1" d="M371.17,321.21h14.18v57.88h-14.18v-57.88Zm10.61,55.18v-20.64h-7.04v20.64h7.04Z"/><path class="cls-1" d="M427.89,319.28h2.51l28.36,59.81h-15.24l-2.89-5.98h-22.86l-2.8,5.98h-15.24l28.17-59.81Zm-15.43,57.11l6.27-13.41h-7.81l-6.37,13.41h7.91Zm23.34-13.41l-6.66-14.66h-.19l-6.75,14.66h13.6Zm10.03,13.41h8.01l-6.37-13.41h-7.81l6.17,13.41Z"/><path class="cls-1" d="M473.13,321.21h14.18v45.73h25.18v12.15h-39.36v-57.88Zm10.61,48.43v-45.72h-7.04v52.48l7.04-6.75Z"/></g><g><path class="cls-2" d="M400.63,144.14c.43-20.49-4.26-41.23-13.1-59.38-14.43-29.64-37.65-54.81-67.31-69.64-.9-.45-1.81-.89-2.73-1.33C299.15,5.11,279.02,.42,258.73,.03c-.95-.02-1.89-.03-2.84-.03-7.03,0-14.07,.51-21.03,1.52-19.7,2.88-38.72,9.9-55.58,20.49-16.51,10.38-30.87,24.11-41.98,40.14-11.29,16.29-19.15,34.89-22.93,54.35-4.56,23.44-2.87,47.92,3.91,70.77,7.31,24.63,20.79,47.26,38.9,65.47,17.62,17.72,41.07,33.48,67.22,27.92,6.4-1.36,12.29-4.06,17.38-8.2,18.33-14.94,17.21-42.26,16.3-63.54-.32-7.53-.69-15.07-.38-22.61,.11-2.79,.39-5.78,2.15-7.95,1.47-1.81,3.75-2.75,5.94-3.55,15.6-5.7,32.88-8.63,45.56-19.36,12.87-10.9,18.7-28.2,20.05-45.01,1.24-15.4-1.25-32.04-11.49-43.61-5.69,13.34-19.39,20.99-30.66,30.11-21.36,17.3-35.9,43.16-38.24,70.55-9.31-12.69-11.3-29.88-21.63-41.75-13.75-15.8-38.41-17.94-52.85-33.11-6.03,16.63-6.62,36.29,3.08,51.09,10.23,15.59,29.33,22.6,47.47,26.92,6.38,1.52,13.49,3.29,16.98,8.84,1.87,2.97,2.36,6.59,2.69,10.08,1.03,10.89,.84,21.87,.02,32.76-.79,10.53-1.05,21.75-5.89,31.38-5.15,10.24-16.08,15.74-27.27,16.38-5.89,.34-11.83-.83-17.27-3.07-11.61-4.78-21.57-12.78-30.38-21.59-8.7-8.71-16.55-18.22-22.99-28.73-8.37-13.65-14.45-28.72-17.75-44.39-1.88-8.91-2.86-18-2.86-27.11,0-73.14,59.29-132.42,132.43-132.42,20.22,0,40.34,4.64,58.48,13.58,17.6,8.68,33.19,21.29,45.37,36.67,20.1,25.36,33.25,59.65,29.75,92.31-1.91,17.81-9.38,35.32-22.42,47.58-1.81,1.7-8.45,8.14-8.73,10.61-.45,4.11,8.68,2.3,10.32,6.1-.09-.21,10.97-11.37,11.97-12.66,3.71-4.78,6.93-9.93,9.67-15.33,7.46-14.69,11.11-31.02,11.45-47.51Z"/><path class="cls-2" d="M326.97,188.33h26.04c9.41,0,17.04,7.64,17.04,17.04v44.35c0,9.41-7.64,17.04-17.04,17.04h-26.04v-78.43h0Z" transform="translate(-67.61 236.45) rotate(-34.37)"/><rect class="cls-2" x="300.85" y="223.71" width="35.65" height="7.57" rx="1.5" ry="1.5" transform="translate(-72.27 249.06) rotate(-38.68)"/><rect class="cls-2" x="319.72" y="253.06" width="35.65" height="7.57" rx="1.5" ry="1.5" transform="translate(-86.48 267.29) rotate(-38.68)"/></g></g></svg>